<svg xmlns="http://www.w3.org/2000/svg" version="1.1" xmlns:xlink="http://www.w3.org/1999/xlink" xmlns:svgjs="http://svgjs.dev/svgjs" width="1500" height="280" viewBox="0 0 1500 280"><g transform="matrix(1,0,0,1,-0.9090909090909918,-0.49500020017237034)"><svg viewBox="0 0 396 74" data-background-color="#eae5df" preserveAspectRatio="xMidYMid meet" height="280" width="1500" xmlns="http://www.w3.org/2000/svg" xmlns:xlink="http://www.w3.org/1999/xlink"><g id="tight-bounds" transform="matrix(1,0,0,1,0.2400000000000091,0.1308214814741291)"><svg viewBox="0 0 395.52 73.73835703705171" height="73.73835703705171" width="395.52"><g><svg viewBox="0 0 505.96184351389644 94.32846648501362" height="73.73835703705171" width="395.52"><g transform="matrix(1,0,0,1,110.44184351389646,13.036712806539512)"><svg viewBox="0 0 395.52 68.2550408719346" height="68.2550408719346" width="395.52"><g id="textblocktransform"><svg viewBox="0 0 395.52 68.2550408719346" height="68.2550408719346" width="395.52" id="textblock"><g><svg viewBox="0 0 395.52 68.2550408719346" height="68.2550408719346" width="395.52"><g transform="matrix(1,0,0,1,0,0)"><svg width="395.52" viewBox="1.7499999999999998 -37.5 220.18 38" height="68.2550408719346" data-palette-color="#be959f"><path d="M29.1-26.25Q29.1-23.25 27.5-21.15 25.9-19.05 22.55-19.05 19.2-19.05 17.7-21.28 16.2-23.5 16.2-26.75L16.2-26.75 20.2-26.75Q20.2-22.8 22.55-22.8L22.55-22.8Q23.8-22.8 24.45-23.78 25.1-24.75 25.1-26.25L25.1-26.25Q25.1-28.65 22.9-30.08 20.7-31.5 17.75-31.5L17.75-31.5Q12.55-31.5 9.4-27.53 6.25-23.55 6.25-17.5 6.25-11.45 9.4-7.48 12.55-3.5 17.73-3.5 22.9-3.5 27-7.8L27-7.8 30.05-5.3Q25.6 0.5 17.95 0.5 10.3 0.5 6.03-4.48 1.75-9.45 1.75-17.4 1.75-25.35 6.05-30.43 10.35-35.5 17.75-35.5L17.75-35.5Q22.3-35.5 25.7-32.93 29.1-30.35 29.1-26.25L29.1-26.25ZM35.65-3.18Q32.5-6.85 32.5-12.5 32.5-18.15 35.65-21.83 38.8-25.5 44.5-25.5 50.2-25.5 53.35-21.83 56.5-18.15 56.5-12.5 56.5-6.85 53.35-3.18 50.2 0.5 44.5 0.5 38.8 0.5 35.65-3.18ZM38.8-19.15Q36.75-16.55 36.75-12.5 36.75-8.45 38.8-5.85 40.85-3.25 44.5-3.25 48.15-3.25 50.2-5.85 52.25-8.45 52.25-12.5 52.25-16.55 50.2-19.15 48.15-21.75 44.5-21.75 40.85-21.75 38.8-19.15ZM63.15-3.18Q60-6.85 60-12.5 60-18.15 63.15-21.83 66.3-25.5 72-25.5 77.7-25.5 80.84-21.83 84-18.15 84-12.5 84-6.85 80.84-3.18 77.7 0.5 72 0.5 66.3 0.5 63.15-3.18ZM66.3-19.15Q64.25-16.55 64.25-12.5 64.25-8.45 66.3-5.85 68.34-3.25 72-3.25 75.65-3.25 77.7-5.85 79.75-8.45 79.75-12.5 79.75-16.55 77.7-19.15 75.65-21.75 72-21.75 68.34-21.75 66.3-19.15ZM94.34-10L94.34-3.25 98.19-3.25 98.19 0 86.24 0 86.24-3.25 90.09-3.25 90.09-34.25 86.24-34.25 86.24-37.5 94.34-37.5 94.34-14.05 97.39-15.15 103.29-21.75 101.44-21.75 101.44-25 110.84-25 110.84-21.75 108.69-21.75 100.79-13.15 108.74-3 112.54-3 112.54-0.9Q111.44-0.25 110.59 0 109.74 0.25 107.89 0.25 106.04 0.25 104.59-1.65L104.59-1.65 97.39-11.1 94.34-10ZM116.89-1L116.89-34.25 113.04-34.25 113.04-37.5 121.14-37.5 121.14-22.25Q124.09-25.5 128.72-25.5 133.34-25.5 135.87-21.83 138.39-18.15 138.39-12.48 138.39-6.8 135.24-3.15 132.09 0.5 126.09 0.5L126.09 0.5Q121.74 0.5 116.89-1L116.89-1ZM132.52-19.05Q130.89-21.75 127.89-21.75 124.89-21.75 123.02-19.4 121.14-17.05 121.14-13.75L121.14-13.75 121.14-4.1Q123.69-3.25 125.69-3.25L125.69-3.25Q129.84-3.25 131.99-5.8 134.14-8.35 134.14-12.35 134.14-16.35 132.52-19.05ZM145.04-3.18Q141.89-6.85 141.89-12.5 141.89-18.15 145.04-21.83 148.19-25.5 153.89-25.5 159.59-25.5 162.74-21.83 165.89-18.15 165.89-12.5 165.89-6.85 162.74-3.18 159.59 0.5 153.89 0.5 148.19 0.5 145.04-3.18ZM148.19-19.15Q146.14-16.55 146.14-12.5 146.14-8.45 148.19-5.85 150.24-3.25 153.89-3.25 157.54-3.25 159.59-5.85 161.64-8.45 161.64-12.5 161.64-16.55 159.59-19.15 157.54-21.75 153.89-21.75 150.24-21.75 148.19-19.15ZM172.54-3.18Q169.39-6.85 169.39-12.5 169.39-18.15 172.54-21.83 175.69-25.5 181.39-25.5 187.09-25.5 190.24-21.83 193.39-18.15 193.39-12.5 193.39-6.85 190.24-3.18 187.09 0.5 181.39 0.5 175.69 0.5 172.54-3.18ZM175.69-19.15Q173.64-16.55 173.64-12.5 173.64-8.45 175.69-5.85 177.74-3.25 181.39-3.25 185.04-3.25 187.09-5.85 189.14-8.45 189.14-12.5 189.14-16.55 187.09-19.15 185.04-21.75 181.39-21.75 177.74-21.75 175.69-19.15ZM203.73-10L203.73-3.25 207.58-3.25 207.58 0 195.63 0 195.63-3.25 199.48-3.25 199.48-34.25 195.63-34.25 195.63-37.5 203.73-37.5 203.73-14.05 206.78-15.15 212.68-21.75 210.83-21.75 210.83-25 220.23-25 220.23-21.75 218.08-21.75 210.18-13.15 218.13-3 221.93-3 221.93-0.9Q220.83-0.25 219.98 0 219.13 0.25 217.28 0.25 215.43 0.25 213.98-1.65L213.98-1.65 206.78-11.1 203.73-10Z" opacity="1" transform="matrix(1,0,0,1,0,0)" fill="#be959f" class="wordmark-text-0" data-fill-palette-color="primary" id="text-0"></path></svg></g></svg></g></svg></g></svg></g><g><svg viewBox="0 0 94.32846648501362 94.32846648501362" height="94.32846648501362" width="94.32846648501362"><g><svg></svg></g><g id="icon-0"><svg viewBox="0 0 94.32846648501362 94.32846648501362" height="94.32846648501362" width="94.32846648501362"><g><path transform="scale(0.94328,0.94328)" d="M30 100c-16.569 0-30-13.431-30-30v-40c0-16.569 13.431-30 30-30h40c16.569 0 30 13.431 30 30v40c0 16.569-13.431 30-30 30z" fill="#a27b92" fill-rule="nonzero" stroke="none" stroke-width="1" stroke-linecap="butt" stroke-linejoin="miter" stroke-miterlimit="10" stroke-dasharray="" stroke-dashoffset="0" font-family="none" font-weight="none" font-size="none" text-anchor="none" style="mix-blend-mode: normal" data-fill-palette-color="accent"></path></g><g transform="matrix(1,0,0,1,18.865693297002725,19.086361779991435)"><svg viewBox="0 0 56.59707989100817 56.15574292503075" height="56.15574292503075" width="56.59707989100817"><g><svg xmlns="http://www.w3.org/2000/svg" data-name="Layer 1" viewBox="0 1 128 127.00187197371494" x="0" y="0" id="dxe-0" width="56.59707989100817" height="56.15574292503075" class="icon-dxe-0" data-fill-palette-color="quaternary"><path d="M126 124H119.59A14.6 14.6 0 0 1 116.78 120H16.35A7.8 7.8 0 0 1 14 116H115.3A31 31 0 0 1 114.46 112H13.25C13.13 110.83 13.06 109.5 13.02 108H114.02C114.02 107.35 113.97 106.69 113.97 106S113.97 104.65 114.02 104H13C13 102.5 13.11 101.17 13.23 100H114.43A31 31 0 0 1 115.27 96H14A7.8 7.8 0 0 1 16.38 92H116.77A14.6 14.6 0 0 1 119.58 88H125V24H108V9A8 8 0 0 0 100 1H99.73L31.18 20A4 4 0 0 0 28 21.83C27.75 22.22 26.28 23 24 23S20.21 22.23 20 21.84A4 4 0 0 0 16.51 20H15C7.76 20 0 32.05 0 50V106C0 116.64 3.94 128 15 128H16.51A4 4 0 0 0 20 126.16C20.24 125.77 21.72 125 24 125S27.79 125.77 28 126.16A4 4 0 0 0 31.49 128H126A2 2 0 0 0 126 124M42.25 43.54C42.25 38.38 46.43 33 51.59 31.54A8.4 8.4 0 0 1 56.18 31.43 13.55 13.55 0 0 1 64 24.84C67.31 23.89 70.21 24.79 71.87 26.91A12.4 12.4 0 0 1 76.46 24.39C81.62 22.91 85.8 25.89 85.8 31.05 85.8 35.68 82.43 40.47 78.02 42.48V59L50 67V50.51C45.61 51 42.25 48.17 42.25 43.54M121 28V84H46.18L100.48 68.94C103.71 68.13 107.99 66.43 107.99 61V28Z" fill="#eae5df" data-fill-palette-color="quaternary"></path></svg></g></svg></g></svg></g></svg></g></svg></g><defs></defs></svg><rect width="395.52" height="73.73835703705171" fill="none" stroke="none" visibility="hidden"></rect></g></svg></g></svg>